G04*
G04 #@! TF.GenerationSoftware,Altium Limited,Altium Designer,23.5.1 (21)*
G04*
G04 Layer_Color=8421504*
%FSLAX25Y25*%
%MOIN*%
G70*
G04*
G04 #@! TF.SameCoordinates,F3818A2F-99DD-4422-A772-264FF04CB145*
G04*
G04*
G04 #@! TF.FilePolarity,Positive*
G04*
G01*
G75*
%ADD13R,0.02559X0.02756*%
%ADD14R,0.09586X0.09586*%
%ADD15R,0.01181X0.00984*%
%ADD16R,0.02992X0.07992*%
%ADD17R,0.09843X0.03937*%
%ADD18R,0.03985X0.04758*%
%ADD19R,0.04134X0.02559*%
%ADD20R,0.03543X0.03150*%
%ADD21R,0.01968X0.01575*%
%ADD22R,0.01968X0.01476*%
%ADD23R,0.00758X0.02681*%
G04:AMPARAMS|DCode=24|XSize=26.81mil|YSize=7.58mil|CornerRadius=3.79mil|HoleSize=0mil|Usage=FLASHONLY|Rotation=270.000|XOffset=0mil|YOffset=0mil|HoleType=Round|Shape=RoundedRectangle|*
%AMROUNDEDRECTD24*
21,1,0.02681,0.00000,0,0,270.0*
21,1,0.01924,0.00758,0,0,270.0*
1,1,0.00758,0.00000,-0.00962*
1,1,0.00758,0.00000,0.00962*
1,1,0.00758,0.00000,0.00962*
1,1,0.00758,0.00000,-0.00962*
%
%ADD24ROUNDEDRECTD24*%
G04:AMPARAMS|DCode=25|XSize=7.58mil|YSize=26.81mil|CornerRadius=3.79mil|HoleSize=0mil|Usage=FLASHONLY|Rotation=270.000|XOffset=0mil|YOffset=0mil|HoleType=Round|Shape=RoundedRectangle|*
%AMROUNDEDRECTD25*
21,1,0.00758,0.01924,0,0,270.0*
21,1,0.00000,0.02681,0,0,270.0*
1,1,0.00758,-0.00962,0.00000*
1,1,0.00758,-0.00962,0.00000*
1,1,0.00758,0.00962,0.00000*
1,1,0.00758,0.00962,0.00000*
%
%ADD25ROUNDEDRECTD25*%
%ADD26R,0.01394X0.01034*%
%ADD27R,0.01788X0.01428*%
%ADD28R,0.01034X0.01394*%
%ADD29R,0.01428X0.01788*%
%ADD30R,0.03758X0.04969*%
%ADD31R,0.02362X0.03937*%
%ADD32R,0.01575X0.01968*%
%ADD33R,0.03174X0.03379*%
%ADD34R,0.03543X0.03150*%
%ADD35R,0.03937X0.03150*%
%ADD36R,0.03379X0.03174*%
%ADD37R,0.04969X0.03758*%
%ADD38R,0.01181X0.01870*%
%ADD39R,0.03937X0.03543*%
G36*
X116707Y112260D02*
X115619D01*
X114462Y111181D01*
Y109200D01*
X114714Y108948D01*
X117612D01*
X117864Y109200D01*
Y111181D01*
X116707Y112260D01*
D02*
G37*
G36*
X116663Y114291D02*
X115574D01*
X114418Y115370D01*
Y117351D01*
X114670Y117604D01*
X117567D01*
X117819Y117351D01*
Y115370D01*
X116663Y114291D01*
D02*
G37*
G36*
X152360Y104393D02*
Y105481D01*
X151281Y106638D01*
X149300D01*
X149048Y106386D01*
Y103488D01*
X149300Y103236D01*
X151281D01*
X152360Y104393D01*
D02*
G37*
G36*
X154391Y104437D02*
Y105526D01*
X155470Y106682D01*
X157451D01*
X157703Y106430D01*
Y103533D01*
X157451Y103281D01*
X155470D01*
X154391Y104437D01*
D02*
G37*
D13*
X140543Y91900D02*
D03*
X145858D02*
D03*
D14*
X129293Y104035D02*
D03*
D15*
X108760Y104331D02*
D03*
X110926D02*
D03*
D16*
X185400Y88800D02*
D03*
Y100808D02*
D03*
X190400Y88800D02*
D03*
Y100808D02*
D03*
X195400Y88800D02*
D03*
Y100808D02*
D03*
X200400Y88800D02*
D03*
Y100808D02*
D03*
X205400Y88800D02*
D03*
Y100808D02*
D03*
D17*
X205627Y112857D02*
D03*
Y132543D02*
D03*
X183973Y122700D02*
D03*
D18*
X151700Y109443D02*
D03*
Y115757D02*
D03*
D19*
X190169Y142968D02*
D03*
X173831D02*
D03*
X190169Y151432D02*
D03*
X173831D02*
D03*
D20*
X116900Y120639D02*
D03*
Y125561D02*
D03*
X115800Y100886D02*
D03*
Y95965D02*
D03*
D21*
X120100Y120475D02*
D03*
Y117325D02*
D03*
X112000Y100975D02*
D03*
Y97825D02*
D03*
X148100Y111225D02*
D03*
Y114375D02*
D03*
X141600Y112675D02*
D03*
Y109525D02*
D03*
D22*
X174946Y128969D02*
D03*
Y127000D02*
D03*
Y125031D02*
D03*
X168254D02*
D03*
Y127000D02*
D03*
Y128969D02*
D03*
D23*
X136380Y113545D02*
D03*
D24*
X134805D02*
D03*
X133230D02*
D03*
X131656D02*
D03*
X130081D02*
D03*
X126931D02*
D03*
X125356D02*
D03*
X123782D02*
D03*
X122207D02*
D03*
Y94525D02*
D03*
X128506D02*
D03*
X133230D02*
D03*
X134805D02*
D03*
X136380D02*
D03*
X128506Y113545D02*
D03*
X123782Y94525D02*
D03*
X125356D02*
D03*
X126931D02*
D03*
X130081D02*
D03*
X131656D02*
D03*
D25*
X119783Y111122D02*
D03*
Y109547D02*
D03*
Y107973D02*
D03*
Y106398D02*
D03*
Y104823D02*
D03*
Y103248D02*
D03*
Y101673D02*
D03*
Y100098D02*
D03*
Y98524D02*
D03*
Y96949D02*
D03*
X138803D02*
D03*
Y98524D02*
D03*
Y100098D02*
D03*
Y101673D02*
D03*
Y103248D02*
D03*
Y104823D02*
D03*
Y106398D02*
D03*
Y107973D02*
D03*
Y109547D02*
D03*
Y111122D02*
D03*
D26*
X102999Y104331D02*
D03*
X100997D02*
D03*
D27*
X87992D02*
D03*
X90388D02*
D03*
D28*
X114862Y104428D02*
D03*
Y106430D02*
D03*
X95600Y104301D02*
D03*
Y102299D02*
D03*
D29*
X108760Y108251D02*
D03*
Y110647D02*
D03*
D30*
X158046Y126700D02*
D03*
X164154D02*
D03*
X169646Y120600D02*
D03*
X175754D02*
D03*
X139354Y86100D02*
D03*
X133246D02*
D03*
D31*
X87500Y112205D02*
D03*
Y124016D02*
D03*
X82382D02*
D03*
Y112205D02*
D03*
D32*
X134825Y91000D02*
D03*
X137975D02*
D03*
X141625Y96100D02*
D03*
X144775D02*
D03*
X147125D02*
D03*
X150275D02*
D03*
X143525Y102800D02*
D03*
X146675D02*
D03*
D33*
X148465Y99700D02*
D03*
X143535D02*
D03*
D34*
X144900Y112953D02*
D03*
Y107047D02*
D03*
D35*
X130057Y126456D02*
D03*
X137143D02*
D03*
Y120944D02*
D03*
X130057D02*
D03*
D36*
X150900Y87135D02*
D03*
Y92065D02*
D03*
D37*
X168500Y102654D02*
D03*
Y96546D02*
D03*
X156600Y87246D02*
D03*
Y93354D02*
D03*
D38*
X161447Y92999D02*
D03*
X163416D02*
D03*
X165384D02*
D03*
X167353D02*
D03*
Y86401D02*
D03*
X165384D02*
D03*
X163416D02*
D03*
X161447D02*
D03*
D39*
X164900Y138458D02*
D03*
Y133142D02*
D03*
M02*
