G04*
G04 #@! TF.GenerationSoftware,Altium Limited,Altium Designer,23.5.1 (21)*
G04*
G04 Layer_Physical_Order=2*
G04 Layer_Color=36540*
%FSLAX25Y25*%
%MOIN*%
G70*
G04*
G04 #@! TF.SameCoordinates,F3818A2F-99DD-4422-A772-264FF04CB145*
G04*
G04*
G04 #@! TF.FilePolarity,Positive*
G04*
G01*
G75*
%ADD61C,0.06000*%
%ADD62C,0.02000*%
G36*
X235433Y79528D02*
X79528D01*
Y109488D01*
X79882Y109840D01*
X103150Y109689D01*
Y126378D01*
X79528D01*
Y156693D01*
X235433D01*
Y79528D01*
D02*
G37*
%LPC*%
G36*
X228794Y153006D02*
X227899D01*
X227034Y152775D01*
X226259Y152327D01*
X225626Y151694D01*
X225178Y150919D01*
X224946Y150054D01*
Y149159D01*
X225178Y148294D01*
X225626Y147519D01*
X226259Y146886D01*
X227034Y146438D01*
X227899Y146206D01*
X228794D01*
X229659Y146438D01*
X230434Y146886D01*
X231067Y147519D01*
X231515Y148294D01*
X231747Y149159D01*
Y150054D01*
X231515Y150919D01*
X231067Y151694D01*
X230434Y152327D01*
X229659Y152775D01*
X228794Y153006D01*
D02*
G37*
G36*
X87062D02*
X86167D01*
X85302Y152775D01*
X84526Y152327D01*
X83894Y151694D01*
X83446Y150919D01*
X83214Y150054D01*
Y149159D01*
X83446Y148294D01*
X83894Y147519D01*
X84526Y146886D01*
X85302Y146438D01*
X86167Y146206D01*
X87062D01*
X87927Y146438D01*
X88702Y146886D01*
X89335Y147519D01*
X89783Y148294D01*
X90014Y149159D01*
Y150054D01*
X89783Y150919D01*
X89335Y151694D01*
X88702Y152327D01*
X87927Y152775D01*
X87062Y153006D01*
D02*
G37*
G36*
X142685Y130543D02*
X142089D01*
X141537Y130314D01*
X141115Y129892D01*
X140887Y129341D01*
Y128744D01*
X141115Y128193D01*
X141537Y127771D01*
X142089Y127542D01*
X142685D01*
X143237Y127771D01*
X143659Y128193D01*
X143887Y128744D01*
Y129341D01*
X143659Y129892D01*
X143237Y130314D01*
X142685Y130543D01*
D02*
G37*
G36*
X135398Y119286D02*
X134802D01*
X134250Y119058D01*
X133828Y118636D01*
X133600Y118084D01*
Y117488D01*
X133828Y116936D01*
X134250Y116514D01*
X134802Y116286D01*
X135398D01*
X135950Y116514D01*
X136372Y116936D01*
X136600Y117488D01*
Y118084D01*
X136372Y118636D01*
X135950Y119058D01*
X135398Y119286D01*
D02*
G37*
G36*
X142498Y117300D02*
X141902D01*
X141350Y117072D01*
X140928Y116650D01*
X140700Y116098D01*
Y115502D01*
X140928Y114950D01*
X141350Y114528D01*
X141902Y114300D01*
X142498D01*
X143050Y114528D01*
X143472Y114950D01*
X143700Y115502D01*
Y116098D01*
X143472Y116650D01*
X143050Y117072D01*
X142498Y117300D01*
D02*
G37*
G36*
X205925Y114357D02*
X205328D01*
X204777Y114129D01*
X204355Y113707D01*
X204127Y113156D01*
Y112559D01*
X204355Y112008D01*
X204777Y111586D01*
X205328Y111357D01*
X205925D01*
X206476Y111586D01*
X206898Y112008D01*
X207127Y112559D01*
Y113156D01*
X206898Y113707D01*
X206476Y114129D01*
X205925Y114357D01*
D02*
G37*
G36*
X148498Y109800D02*
X147902D01*
X147350Y109572D01*
X146928Y109150D01*
X146700Y108598D01*
Y108002D01*
X146928Y107450D01*
X147350Y107028D01*
X147902Y106800D01*
X148498D01*
X149050Y107028D01*
X149472Y107450D01*
X149700Y108002D01*
Y108598D01*
X149472Y109150D01*
X149050Y109572D01*
X148498Y109800D01*
D02*
G37*
G36*
X112198Y96400D02*
X111602D01*
X111050Y96172D01*
X110628Y95750D01*
X110400Y95198D01*
Y94602D01*
X110628Y94050D01*
X111050Y93628D01*
X111602Y93400D01*
X112198D01*
X112750Y93628D01*
X113172Y94050D01*
X113400Y94602D01*
Y95198D01*
X113172Y95750D01*
X112750Y96172D01*
X112198Y96400D01*
D02*
G37*
G36*
X212398Y95100D02*
X211802D01*
X211250Y94872D01*
X210828Y94450D01*
X210600Y93898D01*
Y93302D01*
X210828Y92750D01*
X211250Y92328D01*
X211802Y92100D01*
X212398D01*
X212950Y92328D01*
X213372Y92750D01*
X213600Y93302D01*
Y93898D01*
X213372Y94450D01*
X212950Y94872D01*
X212398Y95100D01*
D02*
G37*
G36*
X146198Y94851D02*
X145602D01*
X145050Y94623D01*
X144628Y94201D01*
X144400Y93650D01*
Y93053D01*
X144628Y92501D01*
X145050Y92080D01*
X145602Y91851D01*
X146198D01*
X146750Y92080D01*
X147172Y92501D01*
X147400Y93053D01*
Y93650D01*
X147172Y94201D01*
X146750Y94623D01*
X146198Y94851D01*
D02*
G37*
G36*
X132798Y92500D02*
X132202D01*
X131650Y92272D01*
X131228Y91850D01*
X131000Y91298D01*
Y90702D01*
X131228Y90150D01*
X131650Y89728D01*
X132202Y89500D01*
X132798D01*
X133350Y89728D01*
X133772Y90150D01*
X134000Y90702D01*
Y91298D01*
X133772Y91850D01*
X133350Y92272D01*
X132798Y92500D01*
D02*
G37*
G36*
X177698Y89300D02*
X177102D01*
X176550Y89072D01*
X176128Y88650D01*
X175900Y88098D01*
Y87502D01*
X176128Y86950D01*
X176550Y86528D01*
X177102Y86300D01*
X177698D01*
X178250Y86528D01*
X178672Y86950D01*
X178900Y87502D01*
Y88098D01*
X178672Y88650D01*
X178250Y89072D01*
X177698Y89300D01*
D02*
G37*
G36*
X87062Y90014D02*
X86167D01*
X85302Y89783D01*
X84526Y89335D01*
X83894Y88702D01*
X83446Y87927D01*
X83214Y87062D01*
Y86167D01*
X83446Y85302D01*
X83894Y84526D01*
X84526Y83894D01*
X85302Y83446D01*
X86167Y83214D01*
X87062D01*
X87927Y83446D01*
X88702Y83894D01*
X89335Y84526D01*
X89783Y85302D01*
X90014Y86167D01*
Y87062D01*
X89783Y87927D01*
X89335Y88702D01*
X88702Y89335D01*
X87927Y89783D01*
X87062Y90014D01*
D02*
G37*
G36*
X205798Y84632D02*
X205202D01*
X204650Y84403D01*
X204228Y83981D01*
X204000Y83430D01*
Y82833D01*
X204228Y82282D01*
X204650Y81860D01*
X205202Y81631D01*
X205798D01*
X206350Y81860D01*
X206772Y82282D01*
X207000Y82833D01*
Y83430D01*
X206772Y83981D01*
X206350Y84403D01*
X205798Y84632D01*
D02*
G37*
G36*
X228794Y88046D02*
X227899D01*
X227034Y87814D01*
X226259Y87366D01*
X225626Y86733D01*
X225178Y85958D01*
X224946Y85093D01*
Y84198D01*
X225178Y83333D01*
X225626Y82558D01*
X226259Y81925D01*
X227034Y81477D01*
X227899Y81246D01*
X228794D01*
X229659Y81477D01*
X230434Y81925D01*
X231067Y82558D01*
X231515Y83333D01*
X231747Y84198D01*
Y85093D01*
X231515Y85958D01*
X231067Y86733D01*
X230434Y87366D01*
X229659Y87814D01*
X228794Y88046D01*
D02*
G37*
%LPD*%
D61*
X228346Y149606D02*
D03*
X86614Y86614D02*
D03*
Y149606D02*
D03*
X228346Y84646D02*
D03*
D62*
X189800Y119415D02*
D03*
X152900Y99800D02*
D03*
X212100Y93600D02*
D03*
X177400Y87800D02*
D03*
X205500Y83131D02*
D03*
X108440Y141696D02*
D03*
X112376D02*
D03*
X110408Y145632D02*
D03*
X102536D02*
D03*
X104504Y141696D02*
D03*
X106472Y145632D02*
D03*
X88760Y133824D02*
D03*
X86792Y137760D02*
D03*
X90728D02*
D03*
X82856D02*
D03*
X84824Y133824D02*
D03*
X160300Y90200D02*
D03*
X133246Y86100D02*
D03*
X158900Y119600D02*
D03*
X134600Y98700D02*
D03*
Y102600D02*
D03*
X131100Y98800D02*
D03*
Y102600D02*
D03*
X134600Y106100D02*
D03*
X131000D02*
D03*
X127800Y98800D02*
D03*
X127700Y102500D02*
D03*
X127600Y106100D02*
D03*
X124000D02*
D03*
Y102500D02*
D03*
X124100Y98800D02*
D03*
X125800Y122500D02*
D03*
X144700Y121100D02*
D03*
X145500Y86500D02*
D03*
X120400Y121600D02*
D03*
X134500Y110000D02*
D03*
X131000D02*
D03*
X127500D02*
D03*
X124000D02*
D03*
X114344Y153504D02*
D03*
X116312Y149568D02*
D03*
X114344Y145632D02*
D03*
X116312Y141696D02*
D03*
X114344Y137760D02*
D03*
X116312Y133824D02*
D03*
X114344Y129888D02*
D03*
X110408Y153504D02*
D03*
X112376Y149568D02*
D03*
X110408Y137760D02*
D03*
X112376Y133824D02*
D03*
X110408Y129888D02*
D03*
X112376Y125952D02*
D03*
X110408Y122016D02*
D03*
X112376Y118080D02*
D03*
X110408Y114144D02*
D03*
X112376Y110208D02*
D03*
X106472Y153504D02*
D03*
X108440Y149568D02*
D03*
X106472Y137760D02*
D03*
X108440Y133824D02*
D03*
X106472Y129888D02*
D03*
X108440Y125952D02*
D03*
X106472Y122016D02*
D03*
X108440Y118080D02*
D03*
X106472Y114144D02*
D03*
Y98400D02*
D03*
X108440Y94464D02*
D03*
X106472Y90528D02*
D03*
X108440Y86592D02*
D03*
X106472Y82656D02*
D03*
X102536Y153504D02*
D03*
X104504Y149568D02*
D03*
X102536Y137760D02*
D03*
X104504Y133824D02*
D03*
X102536Y129888D02*
D03*
X104504Y125952D02*
D03*
Y118080D02*
D03*
Y110208D02*
D03*
X102536Y98400D02*
D03*
X104504Y94464D02*
D03*
X102536Y90528D02*
D03*
X104504Y86592D02*
D03*
X102536Y82656D02*
D03*
X98600Y153504D02*
D03*
X100568Y149568D02*
D03*
X98600Y145632D02*
D03*
X100568Y141696D02*
D03*
X98600Y137760D02*
D03*
X100568Y133824D02*
D03*
X98600Y129888D02*
D03*
Y98400D02*
D03*
X100568Y94464D02*
D03*
X98600Y90528D02*
D03*
X100568Y86592D02*
D03*
X98600Y82656D02*
D03*
X94664Y153504D02*
D03*
X96632Y149568D02*
D03*
X94664Y145632D02*
D03*
X96632Y141696D02*
D03*
X94664Y137760D02*
D03*
X96632Y133824D02*
D03*
X94664Y129888D02*
D03*
Y98400D02*
D03*
X96632Y94464D02*
D03*
X94664Y90528D02*
D03*
X96632Y86592D02*
D03*
X94664Y82656D02*
D03*
X90728Y153504D02*
D03*
X92696Y149568D02*
D03*
X90728Y145632D02*
D03*
X92696Y141696D02*
D03*
Y133824D02*
D03*
X90728Y129888D02*
D03*
Y98400D02*
D03*
X92696Y94464D02*
D03*
X90728Y90528D02*
D03*
X92696Y86592D02*
D03*
X90728Y82656D02*
D03*
X88760Y141696D02*
D03*
X86792Y129888D02*
D03*
Y98400D02*
D03*
X88760Y94464D02*
D03*
X82856Y145632D02*
D03*
X84824Y141696D02*
D03*
X82856Y129888D02*
D03*
Y106272D02*
D03*
Y98400D02*
D03*
X84824Y94464D02*
D03*
X82856Y90528D02*
D03*
X80888Y141696D02*
D03*
Y133824D02*
D03*
Y102336D02*
D03*
Y94464D02*
D03*
X205627Y112857D02*
D03*
X148200Y108300D02*
D03*
X145900Y93351D02*
D03*
X85720Y101098D02*
D03*
X89657Y101100D02*
D03*
X142387Y129042D02*
D03*
X135100Y117786D02*
D03*
X142200Y115800D02*
D03*
X132500Y91000D02*
D03*
X111900Y94900D02*
D03*
X105405Y101098D02*
D03*
X109343Y101200D02*
D03*
X112100Y107500D02*
D03*
X85327Y107600D02*
D03*
X84400Y104300D02*
D03*
X101469Y101098D02*
D03*
X89657Y107500D02*
D03*
X97531Y101098D02*
D03*
X105405Y107500D02*
D03*
X101469D02*
D03*
X93594Y101098D02*
D03*
X97531Y107500D02*
D03*
X93594D02*
D03*
M02*
