G04*
G04 #@! TF.GenerationSoftware,Altium Limited,Altium Designer,23.5.1 (21)*
G04*
G04 Layer_Physical_Order=1*
G04 Layer_Color=255*
%FSLAX25Y25*%
%MOIN*%
G70*
G04*
G04 #@! TF.SameCoordinates,F3818A2F-99DD-4422-A772-264FF04CB145*
G04*
G04*
G04 #@! TF.FilePolarity,Positive*
G04*
G01*
G75*
%ADD12C,0.00500*%
%ADD15R,0.01181X0.00984*%
%ADD16R,0.02992X0.07992*%
%ADD17R,0.09843X0.03937*%
%ADD18R,0.03985X0.04758*%
%ADD19R,0.04134X0.02559*%
%ADD20R,0.03543X0.03150*%
%ADD21R,0.01968X0.01575*%
%ADD22R,0.01968X0.01476*%
%ADD23R,0.00758X0.02681*%
G04:AMPARAMS|DCode=24|XSize=26.81mil|YSize=7.58mil|CornerRadius=3.79mil|HoleSize=0mil|Usage=FLASHONLY|Rotation=270.000|XOffset=0mil|YOffset=0mil|HoleType=Round|Shape=RoundedRectangle|*
%AMROUNDEDRECTD24*
21,1,0.02681,0.00000,0,0,270.0*
21,1,0.01924,0.00758,0,0,270.0*
1,1,0.00758,0.00000,-0.00962*
1,1,0.00758,0.00000,0.00962*
1,1,0.00758,0.00000,0.00962*
1,1,0.00758,0.00000,-0.00962*
%
%ADD24ROUNDEDRECTD24*%
G04:AMPARAMS|DCode=25|XSize=7.58mil|YSize=26.81mil|CornerRadius=3.79mil|HoleSize=0mil|Usage=FLASHONLY|Rotation=270.000|XOffset=0mil|YOffset=0mil|HoleType=Round|Shape=RoundedRectangle|*
%AMROUNDEDRECTD25*
21,1,0.00758,0.01924,0,0,270.0*
21,1,0.00000,0.02681,0,0,270.0*
1,1,0.00758,-0.00962,0.00000*
1,1,0.00758,-0.00962,0.00000*
1,1,0.00758,0.00962,0.00000*
1,1,0.00758,0.00962,0.00000*
%
%ADD25ROUNDEDRECTD25*%
%ADD26R,0.01394X0.01034*%
%ADD27R,0.01788X0.01428*%
%ADD28R,0.01034X0.01394*%
%ADD29R,0.01428X0.01788*%
%ADD30R,0.03758X0.04969*%
%ADD31R,0.02362X0.03937*%
%ADD32R,0.01575X0.01968*%
%ADD33R,0.03174X0.03379*%
%ADD34R,0.03543X0.03150*%
%ADD35R,0.03937X0.03150*%
%ADD36R,0.03379X0.03174*%
%ADD37R,0.04969X0.03758*%
%ADD38R,0.01181X0.01870*%
%ADD39R,0.03937X0.03543*%
%ADD41R,0.15158X0.15158*%
%ADD51R,0.02559X0.05512*%
%ADD52R,0.03402X0.03150*%
%ADD53R,0.03150X0.03402*%
%ADD54C,0.01000*%
%ADD55C,0.00600*%
%ADD56C,0.00800*%
%ADD57C,0.00700*%
%ADD58C,0.00900*%
%ADD59C,0.00400*%
%ADD60C,0.01500*%
%ADD61C,0.06000*%
%ADD62C,0.02000*%
G36*
X235433Y79528D02*
X199272D01*
X199081Y79989D01*
X203101Y84009D01*
X203142Y84071D01*
X203374Y84284D01*
X203702Y84404D01*
X203944Y84404D01*
X204075Y84209D01*
X204196Y83904D01*
X204000Y83430D01*
Y82833D01*
X204228Y82282D01*
X204650Y81860D01*
X205202Y81631D01*
X205798D01*
X206350Y81860D01*
X206772Y82282D01*
X207000Y82833D01*
Y83430D01*
X206804Y83904D01*
X206925Y84209D01*
X207056Y84404D01*
X207296D01*
Y93196D01*
X203504Y93196D01*
X203310Y93616D01*
Y95992D01*
X203390Y96165D01*
X203760Y96412D01*
X207296D01*
Y99890D01*
X208016D01*
X211182Y96724D01*
Y94804D01*
X210828Y94450D01*
X210600Y93898D01*
Y93302D01*
X210828Y92750D01*
X211250Y92328D01*
X211802Y92100D01*
X212398D01*
X212950Y92328D01*
X213372Y92750D01*
X213600Y93302D01*
Y93898D01*
X213372Y94450D01*
X213018Y94804D01*
Y97104D01*
X212948Y97455D01*
X212749Y97753D01*
X209045Y101457D01*
X208747Y101656D01*
X208396Y101725D01*
X207296D01*
Y105204D01*
X203504D01*
Y96903D01*
X203384Y96817D01*
X203004Y96713D01*
X202296Y97421D01*
Y105204D01*
X198714D01*
Y117040D01*
X198644Y117391D01*
X198445Y117689D01*
X189916Y126217D01*
X189618Y126416D01*
X189267Y126486D01*
X178679D01*
X178328Y126416D01*
X178030Y126217D01*
X177323Y125510D01*
X177124Y125213D01*
X177054Y124861D01*
Y124227D01*
X176560Y123790D01*
X176373Y123815D01*
X176331Y123893D01*
Y125862D01*
Y130107D01*
X175964D01*
Y139453D01*
X175894Y139805D01*
X175695Y140102D01*
X175689Y140109D01*
Y141288D01*
X176298D01*
Y142050D01*
X187702D01*
Y141288D01*
X192636D01*
Y144647D01*
X187702D01*
Y143885D01*
X176298D01*
Y144647D01*
X171364D01*
Y141288D01*
X172450D01*
Y138706D01*
X167988Y134244D01*
X167269D01*
Y135314D01*
X162531D01*
Y132789D01*
X153496D01*
X153145Y132719D01*
X152847Y132520D01*
X148287Y127960D01*
X144079D01*
X143769Y128460D01*
X143887Y128744D01*
Y129341D01*
X143659Y129892D01*
X143237Y130314D01*
X142685Y130543D01*
X142089D01*
X141895Y130462D01*
X141464Y130894D01*
X141183Y131081D01*
X140851Y131147D01*
X126169D01*
X125837Y131081D01*
X125556Y130894D01*
X119534Y124871D01*
X119072Y125063D01*
Y125361D01*
X116900D01*
X114728D01*
Y123921D01*
X114445Y123865D01*
X114163Y123677D01*
X113665Y123179D01*
X113478Y122898D01*
X113412Y122566D01*
Y118712D01*
X113478Y118381D01*
X113665Y118100D01*
X113983Y117782D01*
Y117180D01*
X114000Y117097D01*
Y114081D01*
X117627D01*
X117668Y114032D01*
X117668Y114031D01*
Y113139D01*
X117048Y112519D01*
X114000D01*
Y108570D01*
X117683D01*
X117768Y108508D01*
X117981Y108173D01*
X119783D01*
Y107773D01*
X118034D01*
X117827Y107416D01*
X117723Y107315D01*
X117319D01*
X116968Y107245D01*
X116670Y107046D01*
X116241Y106618D01*
X115779Y106809D01*
Y107527D01*
X115062D01*
Y106430D01*
X114862D01*
Y106230D01*
X113945D01*
Y105248D01*
X110926D01*
X110798Y105223D01*
X109935D01*
X109916Y105715D01*
Y108124D01*
X109874Y108336D01*
Y110447D01*
X108760D01*
X107646D01*
Y108500D01*
X107571Y108124D01*
Y105503D01*
X102999D01*
X102551Y105414D01*
X102302Y105248D01*
X101669D01*
X101446Y105397D01*
X100997Y105486D01*
X95641D01*
X95556Y105503D01*
X90388D01*
X90094Y105445D01*
X88418D01*
Y109430D01*
X88772Y109783D01*
X103150Y109689D01*
Y126378D01*
X89081D01*
Y126384D01*
X88418D01*
Y128709D01*
X88348Y129061D01*
X88149Y129358D01*
X87482Y130025D01*
X87440Y130239D01*
X87241Y130537D01*
X86943Y130736D01*
X86592Y130806D01*
X86241Y130736D01*
X85943Y130537D01*
X85744Y130239D01*
X85674Y129888D01*
Y129617D01*
X85744Y129266D01*
X85943Y128969D01*
X86582Y128329D01*
Y126384D01*
X85919D01*
Y126378D01*
X83963D01*
Y126384D01*
X83299D01*
Y127494D01*
X83312Y127514D01*
X83382Y127865D01*
Y129355D01*
X83504Y129537D01*
X83574Y129888D01*
X83504Y130239D01*
X83305Y130537D01*
X83007Y130736D01*
X82656Y130806D01*
X82305Y130736D01*
X82007Y130537D01*
X81816Y130345D01*
X81617Y130048D01*
X81547Y129697D01*
Y128152D01*
X81534Y128133D01*
X81464Y127782D01*
Y126384D01*
X80801D01*
Y126378D01*
X79528D01*
Y156693D01*
X235433D01*
Y79528D01*
D02*
G37*
G36*
X134775Y125563D02*
X133390Y124177D01*
X133224Y123929D01*
X133166Y123637D01*
Y120627D01*
X132921Y120433D01*
X132425Y120655D01*
Y122919D01*
X127688D01*
Y120484D01*
X127397D01*
X127105Y120426D01*
X126857Y120260D01*
X124080Y117483D01*
X123618Y117674D01*
Y123520D01*
X127226Y127129D01*
X127688Y126937D01*
Y126656D01*
X132425D01*
Y128013D01*
X134775D01*
Y125563D01*
D02*
G37*
G36*
X174129Y137082D02*
Y130107D01*
X173562D01*
Y127656D01*
X173330Y127610D01*
X173033Y127411D01*
X171790Y126168D01*
X171591Y125871D01*
X171521Y125519D01*
Y124379D01*
X170627Y123485D01*
X169858D01*
X169638Y123893D01*
X169638Y123985D01*
Y125862D01*
Y128769D01*
X168254D01*
Y128969D01*
X168053D01*
Y130107D01*
X166869D01*
Y129739D01*
X166433Y129585D01*
Y129585D01*
X161875D01*
Y123816D01*
X166434D01*
Y123860D01*
X167066D01*
X167367Y123485D01*
X167367Y123360D01*
Y119013D01*
X162767Y114414D01*
X162568Y114116D01*
X162498Y113765D01*
Y96127D01*
X162036Y95935D01*
X161533Y96438D01*
X161302Y96593D01*
X161029Y96647D01*
X152870D01*
X152597Y96593D01*
X152533Y96550D01*
X152214Y96939D01*
X153049Y97773D01*
X153248Y98071D01*
X153318Y98422D01*
Y98920D01*
X153549Y99151D01*
X153748Y99449D01*
X153818Y99800D01*
X153748Y100151D01*
X153549Y100449D01*
X153251Y100648D01*
X152900Y100718D01*
X150452D01*
Y101784D01*
X152530D01*
X152823Y101842D01*
X153071Y102008D01*
X153510Y102447D01*
X153676Y102695D01*
X153705Y102841D01*
X154181Y102899D01*
X154181Y102899D01*
X154181Y102899D01*
X158130D01*
Y107100D01*
X156220D01*
Y111119D01*
X156162Y111412D01*
X155996Y111660D01*
X155996Y111660D01*
X154544Y113112D01*
X154296Y113278D01*
X154092Y113319D01*
Y115557D01*
X151700D01*
Y115757D01*
X151500D01*
Y118536D01*
X149308D01*
Y115562D01*
X148300D01*
Y114375D01*
X147900D01*
Y115562D01*
X146716D01*
Y114928D01*
X145100D01*
Y112953D01*
X144700D01*
Y114928D01*
X144003D01*
X143669Y115428D01*
X143700Y115502D01*
Y116098D01*
X143472Y116650D01*
X143050Y117072D01*
X142498Y117300D01*
X141902D01*
X141350Y117072D01*
X140982Y116704D01*
X136792D01*
X136482Y117204D01*
X136600Y117488D01*
Y118084D01*
X136441Y118469D01*
X136691Y118969D01*
X136943D01*
Y120944D01*
Y122919D01*
X134934D01*
X134794Y123419D01*
X135856Y124481D01*
X139512D01*
Y126983D01*
X139974Y127174D01*
X140754Y126394D01*
X141052Y126195D01*
X141403Y126125D01*
X148667D01*
X149019Y126195D01*
X149316Y126394D01*
X153876Y130953D01*
X163628D01*
X163717Y130971D01*
X167269D01*
Y132409D01*
X168368D01*
X168720Y132479D01*
X169017Y132678D01*
X173629Y137289D01*
X174129Y137082D01*
D02*
G37*
G36*
X196878Y116660D02*
Y105204D01*
X193504D01*
Y101471D01*
X193154D01*
X192900Y101420D01*
X192796Y101350D01*
X192296Y101525D01*
Y105204D01*
X188504D01*
Y97421D01*
X187796Y96713D01*
X187296Y96920D01*
Y100608D01*
X185600D01*
Y96412D01*
X186787D01*
X186995Y95912D01*
X185293Y94210D01*
X183096D01*
X182823Y94155D01*
X182591Y94001D01*
X177834Y89244D01*
X177698Y89300D01*
X177102D01*
X176550Y89072D01*
X176128Y88650D01*
X175900Y88098D01*
Y87502D01*
X176087Y87049D01*
X175876Y86549D01*
X168502D01*
X168437Y86615D01*
X168343Y86677D01*
Y87736D01*
X164394D01*
Y91664D01*
X168343D01*
Y94266D01*
X171385D01*
Y98825D01*
X165622D01*
Y100375D01*
X171385D01*
Y104934D01*
X170186D01*
Y105941D01*
X170728Y106483D01*
X177452D01*
X177453Y106483D01*
X177765Y106545D01*
X178029Y106722D01*
X179010Y107703D01*
X179010Y107703D01*
X179187Y107967D01*
X179249Y108279D01*
Y120316D01*
X182405D01*
X182405Y120316D01*
X182484Y120332D01*
X189295D01*
Y123590D01*
X189756Y123782D01*
X196878Y116660D01*
D02*
G37*
G36*
X173421Y123094D02*
X173475Y123053D01*
Y117716D01*
X177618D01*
Y108617D01*
X177115Y108114D01*
X170390D01*
X170078Y108052D01*
X169813Y107875D01*
X169813Y107875D01*
X168794Y106856D01*
X168617Y106591D01*
X168555Y106279D01*
X168555Y106279D01*
Y104934D01*
X165615D01*
Y103124D01*
X165275D01*
X164963Y103062D01*
X164833Y102976D01*
X164390Y103149D01*
X164333Y103197D01*
Y113385D01*
X168664Y117716D01*
X171925D01*
Y122187D01*
X172975Y123237D01*
X173421Y123094D01*
D02*
G37*
G36*
X143587Y97132D02*
Y96300D01*
X144775D01*
Y95900D01*
X143587D01*
Y94716D01*
X144178D01*
Y88744D01*
X147537D01*
Y91198D01*
X148811D01*
Y90078D01*
X151764D01*
X152258Y89584D01*
X152067Y89122D01*
X151100D01*
Y87135D01*
X150900D01*
Y86935D01*
X148811D01*
Y85384D01*
X141633D01*
Y88744D01*
X142222D01*
Y94716D01*
X142813D01*
Y96299D01*
X142830Y96387D01*
Y97266D01*
X143087Y97416D01*
X143587Y97132D01*
D02*
G37*
G36*
X81601Y109829D02*
Y106409D01*
X81671Y106058D01*
X81870Y105760D01*
X82007Y105623D01*
X82305Y105424D01*
X82656Y105354D01*
X83007Y105424D01*
X83305Y105623D01*
X83504Y105921D01*
X83574Y106272D01*
X83504Y106623D01*
X83437Y106724D01*
Y109462D01*
X83791Y109815D01*
X86582Y109797D01*
Y104643D01*
X86652Y104292D01*
X86698Y104223D01*
Y103217D01*
X90094D01*
X90388Y103158D01*
X94683D01*
Y102499D01*
X95600D01*
X96517D01*
Y103141D01*
X100997D01*
X101446Y103231D01*
X101720Y103413D01*
X102302D01*
X102551Y103247D01*
X102999Y103158D01*
X108744D01*
X109192Y103247D01*
X109445Y103416D01*
X109935Y103439D01*
X109935Y103439D01*
X110798D01*
X110926Y103413D01*
X113455D01*
X113533Y103321D01*
X113628Y102861D01*
X113628D01*
Y102561D01*
X113384Y102162D01*
X112200D01*
Y100975D01*
Y99614D01*
X112321Y99334D01*
X112059Y99013D01*
X110616D01*
Y96638D01*
X110982D01*
Y96104D01*
X110628Y95750D01*
X110400Y95198D01*
Y94602D01*
X110628Y94050D01*
X111050Y93628D01*
X111602Y93400D01*
X112198D01*
X112750Y93628D01*
X113128Y94007D01*
X113628Y93990D01*
X113688Y93990D01*
X115600D01*
Y95965D01*
X116000D01*
Y93990D01*
X117972D01*
Y95987D01*
X118472Y96246D01*
X118518Y96215D01*
X118822Y96155D01*
X120745D01*
X120815Y96169D01*
X121315Y96057D01*
X121426Y95557D01*
X121413Y95487D01*
Y93564D01*
X121473Y93260D01*
X121645Y93002D01*
X121903Y92830D01*
X122207Y92769D01*
X122511Y92830D01*
X122568Y92868D01*
X123068Y92619D01*
Y86251D01*
X123122Y85978D01*
X123277Y85746D01*
X129033Y79989D01*
X128842Y79528D01*
X79528D01*
Y109488D01*
X79882Y109840D01*
X81601Y109829D01*
D02*
G37*
%LPC*%
G36*
X176298Y153112D02*
X174031D01*
Y151632D01*
X176298D01*
Y153112D01*
D02*
G37*
G36*
X192636D02*
X190369D01*
Y151632D01*
X192636D01*
Y153112D01*
D02*
G37*
G36*
X189969D02*
X187702D01*
Y151632D01*
X189969D01*
Y153112D01*
D02*
G37*
G36*
X173631D02*
X171364D01*
Y151632D01*
X173631D01*
Y153112D01*
D02*
G37*
G36*
X192636Y151232D02*
X190369D01*
Y149753D01*
X192636D01*
Y151232D01*
D02*
G37*
G36*
X189969D02*
X187702D01*
Y149753D01*
X189969D01*
Y151232D01*
D02*
G37*
G36*
X176298D02*
X174031D01*
Y149753D01*
X176298D01*
Y151232D01*
D02*
G37*
G36*
X173631D02*
X171364D01*
Y149753D01*
X173631D01*
Y151232D01*
D02*
G37*
G36*
X228794Y153006D02*
X227899D01*
X227034Y152775D01*
X226259Y152327D01*
X225626Y151694D01*
X225178Y150919D01*
X224946Y150054D01*
Y149159D01*
X225178Y148294D01*
X225626Y147519D01*
X226259Y146886D01*
X227034Y146438D01*
X227899Y146206D01*
X228794D01*
X229659Y146438D01*
X230434Y146886D01*
X231067Y147519D01*
X231515Y148294D01*
X231747Y149159D01*
Y150054D01*
X231515Y150919D01*
X231067Y151694D01*
X230434Y152327D01*
X229659Y152775D01*
X228794Y153006D01*
D02*
G37*
G36*
X87062D02*
X86167D01*
X85302Y152775D01*
X84526Y152327D01*
X83894Y151694D01*
X83446Y150919D01*
X83214Y150054D01*
Y149159D01*
X83446Y148294D01*
X83894Y147519D01*
X84526Y146886D01*
X85302Y146438D01*
X86167Y146206D01*
X87062D01*
X87927Y146438D01*
X88702Y146886D01*
X89335Y147519D01*
X89783Y148294D01*
X90014Y149159D01*
Y150054D01*
X89783Y150919D01*
X89335Y151694D01*
X88702Y152327D01*
X87927Y152775D01*
X87062Y153006D01*
D02*
G37*
G36*
X167269Y140629D02*
X165100D01*
Y138657D01*
X167269D01*
Y140629D01*
D02*
G37*
G36*
X164700D02*
X162531D01*
Y138657D01*
X164700D01*
Y140629D01*
D02*
G37*
G36*
X167269Y138258D02*
X165100D01*
Y136286D01*
X167269D01*
Y138258D01*
D02*
G37*
G36*
X164700D02*
X162531D01*
Y136286D01*
X164700D01*
Y138258D01*
D02*
G37*
G36*
X210948Y134911D02*
X205827D01*
Y132743D01*
X210948D01*
Y134911D01*
D02*
G37*
G36*
X205427D02*
X200306D01*
Y132743D01*
X205427D01*
Y134911D01*
D02*
G37*
G36*
X210948Y132343D02*
X205827D01*
Y130174D01*
X210948D01*
Y132343D01*
D02*
G37*
G36*
X205427D02*
X200306D01*
Y130174D01*
X205427D01*
Y132343D01*
D02*
G37*
G36*
X119072Y127535D02*
X117100D01*
Y125761D01*
X119072D01*
Y127535D01*
D02*
G37*
G36*
X116700D02*
X114728D01*
Y125761D01*
X116700D01*
Y127535D01*
D02*
G37*
G36*
X109874Y111941D02*
X108960D01*
Y110847D01*
X109874D01*
Y111941D01*
D02*
G37*
G36*
X108560D02*
X107646D01*
Y110847D01*
X108560D01*
Y111941D01*
D02*
G37*
G36*
X210948Y115226D02*
X200306D01*
Y110489D01*
X210948D01*
Y115226D01*
D02*
G37*
G36*
X114662Y107527D02*
X113945D01*
Y106630D01*
X114662D01*
Y107527D01*
D02*
G37*
G36*
X228794Y88046D02*
X227899D01*
X227034Y87814D01*
X226259Y87366D01*
X225626Y86733D01*
X225178Y85958D01*
X224946Y85093D01*
Y84198D01*
X225178Y83333D01*
X225626Y82558D01*
X226259Y81925D01*
X227034Y81477D01*
X227899Y81246D01*
X228794D01*
X229659Y81477D01*
X230434Y81925D01*
X231067Y82558D01*
X231515Y83333D01*
X231747Y84198D01*
Y85093D01*
X231515Y85958D01*
X231067Y86733D01*
X230434Y87366D01*
X229659Y87814D01*
X228794Y88046D01*
D02*
G37*
G36*
X132425Y126256D02*
X130257D01*
Y124481D01*
X132425D01*
Y126256D01*
D02*
G37*
G36*
X129857D02*
X127688D01*
Y124481D01*
X129857D01*
Y126256D01*
D02*
G37*
G36*
X169638Y130107D02*
X168454D01*
Y129168D01*
X169638D01*
Y130107D01*
D02*
G37*
G36*
X160325Y129585D02*
X158246D01*
Y126900D01*
X160325D01*
Y129585D01*
D02*
G37*
G36*
X157846D02*
X155766D01*
Y126900D01*
X157846D01*
Y129585D01*
D02*
G37*
G36*
X160325Y126500D02*
X158246D01*
Y123816D01*
X160325D01*
Y126500D01*
D02*
G37*
G36*
X157846D02*
X155766D01*
Y123816D01*
X157846D01*
Y126500D01*
D02*
G37*
G36*
X139512Y122919D02*
X137343D01*
Y121144D01*
X139512D01*
Y122919D01*
D02*
G37*
G36*
Y120744D02*
X137343D01*
Y118969D01*
X139512D01*
Y120744D01*
D02*
G37*
G36*
X154092Y118536D02*
X151900D01*
Y115957D01*
X154092D01*
Y118536D01*
D02*
G37*
G36*
X187296Y105204D02*
X185600D01*
Y101008D01*
X187296D01*
Y105204D01*
D02*
G37*
G36*
X185200D02*
X183504D01*
Y101008D01*
X185200D01*
Y105204D01*
D02*
G37*
G36*
Y100608D02*
X183504D01*
Y96412D01*
X185200D01*
Y100608D01*
D02*
G37*
G36*
X150700Y89122D02*
X148811D01*
Y87335D01*
X150700D01*
Y89122D01*
D02*
G37*
G36*
X96517Y102099D02*
X95800D01*
Y101202D01*
X96517D01*
Y102099D01*
D02*
G37*
G36*
X95400D02*
X94683D01*
Y101202D01*
X95400D01*
Y102099D01*
D02*
G37*
G36*
X111800Y102162D02*
X110616D01*
Y101175D01*
X111800D01*
Y102162D01*
D02*
G37*
G36*
Y100775D02*
X110616D01*
Y99787D01*
X111800D01*
Y100775D01*
D02*
G37*
G36*
X87062Y90014D02*
X86167D01*
X85302Y89783D01*
X84526Y89335D01*
X83894Y88702D01*
X83446Y87927D01*
X83214Y87062D01*
Y86167D01*
X83446Y85302D01*
X83894Y84526D01*
X84526Y83894D01*
X85302Y83446D01*
X86167Y83214D01*
X87062D01*
X87927Y83446D01*
X88702Y83894D01*
X89335Y84526D01*
X89783Y85302D01*
X90014Y86167D01*
Y87062D01*
X89783Y87927D01*
X89335Y88702D01*
X88702Y89335D01*
X87927Y89783D01*
X87062Y90014D01*
D02*
G37*
%LPD*%
D12*
X189993Y94804D02*
X190807D01*
X188254Y93065D02*
X189993Y94804D01*
X188254Y84535D02*
Y93065D01*
X190807Y94804D02*
X192546Y96543D01*
Y100200D02*
X193154Y100808D01*
X192546Y92357D02*
X193635Y93446D01*
X188635Y84154D02*
X192165D01*
X188254Y84535D02*
X188635Y84154D01*
X130081Y83982D02*
Y94525D01*
X131097Y82965D02*
X192250D01*
X193446Y84162D01*
Y84346D01*
X195400Y86300D01*
Y88800D01*
X126931Y85859D02*
Y94525D01*
Y85859D02*
X130725Y82065D01*
X195077D01*
X197546Y84535D01*
X192546D02*
Y92357D01*
Y96543D02*
Y100200D01*
X192165Y84154D02*
X192546Y84535D01*
X197546D02*
Y93065D01*
X197165Y93446D02*
X197546Y93065D01*
X193635Y93446D02*
X197165D01*
X193154Y100808D02*
X195400D01*
X130081Y83982D02*
X131097Y82965D01*
D15*
X108760Y104331D02*
D03*
X110926D02*
D03*
D16*
X185400Y88800D02*
D03*
Y100808D02*
D03*
X190400Y88800D02*
D03*
Y100808D02*
D03*
X195400Y88800D02*
D03*
Y100808D02*
D03*
X200400Y88800D02*
D03*
Y100808D02*
D03*
X205400Y88800D02*
D03*
Y100808D02*
D03*
D17*
X205627Y112857D02*
D03*
Y132543D02*
D03*
X183973Y122700D02*
D03*
D18*
X151700Y109443D02*
D03*
Y115757D02*
D03*
D19*
X190169Y142968D02*
D03*
X173831D02*
D03*
X190169Y151432D02*
D03*
X173831D02*
D03*
D20*
X116900Y120639D02*
D03*
Y125561D02*
D03*
X115800Y100886D02*
D03*
Y95965D02*
D03*
D21*
X120100Y120475D02*
D03*
Y117325D02*
D03*
X112000Y100975D02*
D03*
Y97825D02*
D03*
X148100Y111225D02*
D03*
Y114375D02*
D03*
X141600Y112675D02*
D03*
Y109525D02*
D03*
D22*
X174946Y128969D02*
D03*
Y127000D02*
D03*
Y125031D02*
D03*
X168254D02*
D03*
Y127000D02*
D03*
Y128969D02*
D03*
D23*
X136380Y113545D02*
D03*
D24*
X134805D02*
D03*
X133230D02*
D03*
X131656D02*
D03*
X130081D02*
D03*
X126931D02*
D03*
X125356D02*
D03*
X123782D02*
D03*
X122207D02*
D03*
Y94525D02*
D03*
X128506D02*
D03*
X133230D02*
D03*
X134805D02*
D03*
X136380D02*
D03*
X128506Y113545D02*
D03*
X123782Y94525D02*
D03*
X125356D02*
D03*
X126931D02*
D03*
X130081D02*
D03*
X131656D02*
D03*
D25*
X119783Y111122D02*
D03*
Y109547D02*
D03*
Y107973D02*
D03*
Y106398D02*
D03*
Y104823D02*
D03*
Y103248D02*
D03*
Y101673D02*
D03*
Y100098D02*
D03*
Y98524D02*
D03*
Y96949D02*
D03*
X138803D02*
D03*
Y98524D02*
D03*
Y100098D02*
D03*
Y101673D02*
D03*
Y103248D02*
D03*
Y104823D02*
D03*
Y106398D02*
D03*
Y107973D02*
D03*
Y109547D02*
D03*
Y111122D02*
D03*
D26*
X102999Y104331D02*
D03*
X100997D02*
D03*
D27*
X87992D02*
D03*
X90388D02*
D03*
D28*
X114862Y104428D02*
D03*
Y106430D02*
D03*
X95600Y104301D02*
D03*
Y102299D02*
D03*
D29*
X108760Y108251D02*
D03*
Y110647D02*
D03*
D30*
X158046Y126700D02*
D03*
X164154D02*
D03*
X169646Y120600D02*
D03*
X175754D02*
D03*
X139354Y86100D02*
D03*
X133246D02*
D03*
D31*
X87500Y112205D02*
D03*
Y124016D02*
D03*
X82382D02*
D03*
Y112205D02*
D03*
D32*
X134825Y91000D02*
D03*
X137975D02*
D03*
X141625Y96100D02*
D03*
X144775D02*
D03*
X147125D02*
D03*
X150275D02*
D03*
X143525Y102800D02*
D03*
X146675D02*
D03*
D33*
X148465Y99700D02*
D03*
X143535D02*
D03*
D34*
X144900Y112953D02*
D03*
Y107047D02*
D03*
D35*
X130057Y126456D02*
D03*
X137143D02*
D03*
Y120944D02*
D03*
X130057D02*
D03*
D36*
X150900Y87135D02*
D03*
Y92065D02*
D03*
D37*
X168500Y102654D02*
D03*
Y96546D02*
D03*
X156600Y87246D02*
D03*
Y93354D02*
D03*
D38*
X161447Y92999D02*
D03*
X163416D02*
D03*
X165384D02*
D03*
X167353D02*
D03*
Y86401D02*
D03*
X165384D02*
D03*
X163416D02*
D03*
X161447D02*
D03*
D39*
X164900Y138458D02*
D03*
Y133142D02*
D03*
D41*
X129293Y104035D02*
D03*
D51*
X140543Y91900D02*
D03*
X145857D02*
D03*
D52*
X116101Y116056D02*
D03*
Y110545D02*
D03*
D53*
X150645Y104999D02*
D03*
X156156D02*
D03*
D54*
X169646Y119995D02*
Y120600D01*
X163416Y113765D02*
X169646Y119995D01*
X163416Y92999D02*
Y113765D01*
X178679Y125568D02*
X189267D01*
X197796Y117040D01*
X174618Y142968D02*
X190169D01*
X173992D02*
X174305Y142654D01*
X174771Y142188D01*
X173368Y138326D02*
Y142505D01*
X173831Y142968D01*
X168368Y133327D02*
X173368Y138326D01*
X165084Y133327D02*
X168368D01*
X174771Y139729D02*
Y142188D01*
X174946Y128969D02*
X175047D01*
Y139453D01*
X174771Y139729D02*
X175047Y139453D01*
X148465Y99700D02*
X148565Y99800D01*
X152900D01*
X123900Y109500D02*
X124200D01*
X133602Y100098D02*
X138803D01*
X131100Y102600D02*
X133602Y100098D01*
X127600Y106100D02*
X131100Y102600D01*
X124200Y109500D02*
X127600Y106100D01*
X86592Y129617D02*
Y129888D01*
X152400Y99300D02*
X152900Y99800D01*
X150275Y96100D02*
Y96297D01*
X152400Y98422D01*
Y99300D01*
X141600Y112675D02*
X144622D01*
X144900Y112953D01*
X165294Y85394D02*
Y86310D01*
X140734Y84466D02*
X164366D01*
X165294Y85394D01*
Y86310D02*
X165384Y86401D01*
X167353D01*
X208396Y100808D02*
X212100Y97104D01*
Y93600D02*
Y97104D01*
X167353Y86056D02*
Y86401D01*
Y86056D02*
X167443Y85966D01*
X167788D01*
X168122Y85632D01*
X184404D01*
X205400Y100808D02*
X208396D01*
X205450Y83182D02*
X205500Y83131D01*
X205450Y83182D02*
Y88750D01*
X205400Y88800D02*
X205450Y88750D01*
X185400Y86628D02*
Y88800D01*
X184404Y85632D02*
X185400Y86628D01*
X190400Y88800D02*
X191396Y89796D01*
Y92834D01*
X193199Y94636D01*
X195993D01*
X197796Y96439D01*
Y117040D01*
X177972Y124861D02*
X178679Y125568D01*
X177972Y123423D02*
Y124861D01*
X176799Y122250D02*
X177972Y123423D01*
X175350Y122250D02*
X176799D01*
X139354Y85846D02*
Y86100D01*
Y85846D02*
X140734Y84466D01*
X175350Y121408D02*
Y122250D01*
Y121004D02*
Y121408D01*
Y121004D02*
X175754Y120600D01*
X174946Y121408D02*
X175350Y121004D01*
X174946Y122250D02*
Y125031D01*
Y121408D02*
Y122250D01*
X161447Y86401D02*
Y88836D01*
X160300Y89983D02*
X161447Y88836D01*
X160300Y89983D02*
Y90200D01*
X133272Y86100D02*
X133561Y86390D01*
Y87021D01*
X134625Y88085D01*
X137687Y90713D02*
X137975Y91000D01*
X134625Y88085D02*
X135256D01*
X137687Y90516D01*
Y90713D01*
X133246Y86100D02*
Y86705D01*
X147378Y100787D02*
X148465Y99700D01*
X147378Y100787D02*
Y101900D01*
X146675Y102603D02*
X147378Y101900D01*
X146675Y102603D02*
Y102800D01*
X120001Y114110D02*
X122700Y116809D01*
Y123900D01*
X127188Y128388D01*
X120100Y120475D02*
X120250Y120625D01*
Y121450D01*
X120400Y121600D01*
X87500Y124016D02*
Y128709D01*
X86592Y129617D02*
X87500Y128709D01*
X82382Y112205D02*
X82519Y112068D01*
Y106409D02*
Y112068D01*
Y106409D02*
X82656Y106272D01*
X82465Y129697D02*
X82656Y129888D01*
X82465Y127865D02*
Y129697D01*
X82382Y127782D02*
X82465Y127865D01*
X82382Y124016D02*
Y127782D01*
X169646Y120600D02*
Y121205D01*
X172439Y123999D01*
Y125519D01*
X173681Y126762D01*
X174708D01*
X174946Y127000D01*
X163400Y125946D02*
X164154Y126700D01*
X163400Y125754D02*
Y125946D01*
Y125754D02*
X164377Y124778D01*
X167769D01*
Y124793D01*
X168008Y125031D01*
X168254D01*
Y127000D01*
X141913Y97975D02*
X143535Y99597D01*
X163416Y92999D02*
X163476Y92939D01*
X163416Y86401D02*
X163476Y86461D01*
Y92939D01*
X148667Y127042D02*
X153496Y131871D01*
X163628D01*
X165084Y133327D01*
X141403Y127042D02*
X148667D01*
X139546Y128900D02*
X141403Y127042D01*
X139515Y128900D02*
X139546D01*
X139485Y128931D02*
X139515Y128900D01*
X127715Y128931D02*
X139485D01*
X127188Y128403D02*
X127715Y128931D01*
X127188Y128388D02*
Y128403D01*
X120001Y113461D02*
Y114110D01*
X119783Y113243D02*
X120001Y113461D01*
X119783Y111122D02*
Y113243D01*
X141625Y96100D02*
X141913Y96387D01*
Y97975D01*
X138803Y94828D02*
Y96949D01*
Y94828D02*
X139475Y94156D01*
X139763D01*
X140543Y93376D01*
Y91900D02*
Y93376D01*
X138803Y98524D02*
X142448D01*
X136380Y92752D02*
Y94525D01*
X134825Y91000D02*
X135113Y91287D01*
Y91484D01*
X136380Y92752D01*
X128506Y115146D02*
X130729Y117369D01*
X128506Y113545D02*
Y115146D01*
X133079Y117595D02*
X134909D01*
X135100Y117786D01*
X132854Y117369D02*
X133079Y117595D01*
X130729Y117369D02*
X132854D01*
X142186Y115786D02*
X142200Y115800D01*
X134272Y115786D02*
X134272Y115786D01*
X131126Y115786D02*
X134272D01*
X134272Y115786D02*
X142186D01*
X130081Y114741D02*
X131126Y115786D01*
X130081Y113545D02*
Y114741D01*
X111900Y97538D02*
X112187Y97825D01*
X112197D01*
X111900Y94900D02*
Y97538D01*
X117319Y106398D02*
X119783D01*
X115546Y104625D02*
X117319Y106398D01*
X114862Y104428D02*
Y104608D01*
X114879Y104625D01*
X115546D01*
X117072Y103309D02*
X118586Y104823D01*
X119783D01*
X115800Y100886D02*
X115997D01*
X117072Y101961D01*
Y103309D01*
X112197Y97825D02*
X114183Y99811D01*
X114725D01*
X115800Y100886D01*
X110926Y104331D02*
X114845D01*
X114862Y104348D01*
Y104428D01*
X87500Y104643D02*
Y112205D01*
Y104643D02*
X87812Y104331D01*
X87992D01*
D55*
X152870Y95934D02*
X161029D01*
X162738Y94224D01*
X163125Y93290D02*
Y93837D01*
X162738Y94224D02*
X163125Y93837D01*
X162738Y94224D02*
Y94224D01*
X163125Y93290D02*
X163416Y92999D01*
X151352Y94416D02*
X152870Y95934D01*
X190400Y98308D02*
Y100808D01*
X177400Y87800D02*
X183096Y93496D01*
X185588D01*
X190400Y98308D01*
X130155Y79878D02*
X197960D01*
X202596Y84514D01*
Y96112D01*
X200400Y98308D02*
X202596Y96112D01*
X200400Y98308D02*
Y100808D01*
X130519Y80927D02*
X195282D01*
X198496Y84141D01*
Y84396D01*
X200400Y86300D01*
Y88800D01*
X123782Y86251D02*
Y94525D01*
Y86251D02*
X130155Y79878D01*
X125356Y86090D02*
Y94525D01*
Y86090D02*
X130519Y80927D01*
X167353Y92999D02*
Y95398D01*
X168500Y96546D01*
X148613Y94416D02*
X151352D01*
X147125Y95903D02*
X148613Y94416D01*
X147125Y95903D02*
Y96100D01*
X143535Y99597D02*
X144822Y98311D01*
X144924D01*
X131656Y92223D02*
Y94525D01*
Y92223D02*
X132500Y91379D01*
X146638Y96587D02*
Y96597D01*
X143535Y99597D02*
Y99700D01*
X146638Y96587D02*
X147125Y96100D01*
X132500Y91000D02*
Y91379D01*
D56*
X178902Y121132D02*
X182405D01*
X164806Y101840D02*
X165275Y102308D01*
X178434Y108279D02*
Y120663D01*
X170390Y107299D02*
X177453D01*
X164806Y93922D02*
X165194Y93534D01*
X169371Y103525D02*
Y106279D01*
X165275Y102308D02*
X168154D01*
X165194Y93190D02*
X165384Y92999D01*
X177453Y107299D02*
X178434Y108279D01*
X164806Y93922D02*
Y101840D01*
X182405Y121132D02*
X183973Y122700D01*
X168154Y102308D02*
X169371Y103525D01*
X178434Y120663D02*
X178902Y121132D01*
X169371Y106279D02*
X170390Y107299D01*
X165194Y93190D02*
Y93534D01*
X116101Y110545D02*
X117098Y109547D01*
X119783D01*
X116900Y120639D02*
X117097D01*
X118272Y119465D01*
Y118957D02*
Y119465D01*
Y118957D02*
X119903Y117325D01*
X118483Y112802D02*
Y114032D01*
X119516Y115463D02*
Y116938D01*
X116226Y110545D02*
X118483Y112802D01*
X116101Y110545D02*
X116226D01*
X118701Y114649D02*
X119516Y115463D01*
Y116938D02*
X119903Y117325D01*
X118483Y114032D02*
X118701Y114249D01*
Y114649D01*
D57*
X122653Y114975D02*
X127397Y119719D01*
X128832D01*
X152530Y102549D02*
X152969Y102988D01*
X153379Y104999D02*
X156156D01*
X152969Y104589D02*
X153379Y104999D01*
X152969Y102988D02*
Y104589D01*
X148759Y102549D02*
X152530D01*
X144924Y98311D02*
X145401Y97834D01*
X145873D01*
X146312Y97395D01*
Y96923D02*
Y97395D01*
X150645Y104999D02*
Y108388D01*
X151700Y109443D01*
X143525Y102800D02*
Y102997D01*
X145063Y104534D01*
X148266Y103042D02*
Y104041D01*
X147773Y104534D02*
X148266Y104041D01*
Y103042D02*
X148759Y102549D01*
X145063Y104534D02*
X147773D01*
X146322Y105822D02*
X146629D01*
X146732Y105720D02*
X149924D01*
X146629Y105822D02*
X146732Y105720D01*
X149924D02*
X150645Y104999D01*
X155456Y105700D02*
Y111119D01*
Y105700D02*
X156156Y104999D01*
X154003Y112572D02*
X155456Y111119D01*
X149397Y112572D02*
X154003D01*
X148858Y112032D02*
X149397Y112572D01*
X148858Y111786D02*
Y112032D01*
X148297Y111225D02*
X148858Y111786D01*
X148100Y111225D02*
X148297D01*
X145097Y107047D02*
X146322Y105822D01*
X143478Y105818D02*
Y105822D01*
X140908Y103248D02*
X143478Y105818D01*
X138803Y103248D02*
X140908D01*
X143478Y105822D02*
X144703Y107047D01*
X145097D01*
X146312Y96923D02*
X146638Y96597D01*
X132336Y118619D02*
X133930Y120214D01*
Y123637D01*
X124227Y114975D02*
X127872Y118619D01*
X132336D01*
X123782Y114523D02*
X124227Y114969D01*
Y114975D01*
X133930Y123637D02*
X136750Y126456D01*
X137143D01*
X123782Y113545D02*
Y114523D01*
X122207Y113545D02*
Y114523D01*
X122653Y114969D01*
Y114975D01*
X128832Y119719D02*
X130057Y120944D01*
D58*
X146971Y109525D02*
X148196Y108300D01*
X148200D01*
X141623Y102266D02*
X143188D01*
X141030Y101673D02*
X141623Y102266D01*
X138803Y101673D02*
X141030D01*
X143525Y102603D02*
Y102800D01*
X143188Y102266D02*
X143525Y102603D01*
X148150Y108346D02*
Y111175D01*
X148100Y111225D02*
X148150Y111175D01*
X141600Y109525D02*
X146971D01*
X140001Y104823D02*
X141600Y106422D01*
X138803Y104823D02*
X140001D01*
X141600Y106422D02*
Y109525D01*
X156600Y93354D02*
X161307D01*
X161447Y93214D01*
Y92999D02*
Y93214D01*
X150900Y92065D02*
X151003D01*
X154393Y88675D01*
X155171D01*
X156600Y87246D01*
X146022Y92065D02*
X150900D01*
X145857Y91900D02*
X146022Y92065D01*
X142089Y129042D02*
X142387D01*
X140851Y130281D02*
X142089Y129042D01*
X126169Y130281D02*
X140851D01*
X118952Y123064D02*
X126169Y130281D01*
X114776Y123064D02*
X118952D01*
X114278Y118712D02*
Y122566D01*
X114776Y123064D01*
X114278Y118712D02*
X114850Y118141D01*
Y117180D02*
X115974Y116056D01*
X116101D01*
X114850Y117180D02*
Y118141D01*
D59*
X136400Y127199D02*
X137143Y126456D01*
D60*
X95556Y104331D02*
X95585Y104301D01*
X95600D01*
X90388Y104331D02*
X95556D01*
X95613Y104314D02*
X100997D01*
X95600Y104301D02*
X95613Y104314D01*
X108744Y104331D02*
Y108124D01*
X102999Y104331D02*
X108744D01*
X108760Y104348D01*
D61*
X228346Y149606D02*
D03*
X86614Y86614D02*
D03*
Y149606D02*
D03*
X228346Y84646D02*
D03*
D62*
X189800Y119415D02*
D03*
X152900Y99800D02*
D03*
X212100Y93600D02*
D03*
X177400Y87800D02*
D03*
X205500Y83131D02*
D03*
X108440Y141696D02*
D03*
X112376D02*
D03*
X110408Y145632D02*
D03*
X102536D02*
D03*
X104504Y141696D02*
D03*
X106472Y145632D02*
D03*
X88760Y133824D02*
D03*
X86792Y137760D02*
D03*
X90728D02*
D03*
X82856D02*
D03*
X84824Y133824D02*
D03*
X160300Y90200D02*
D03*
X133246Y86100D02*
D03*
X158900Y119600D02*
D03*
X134600Y98700D02*
D03*
Y102600D02*
D03*
X131100Y98800D02*
D03*
Y102600D02*
D03*
X134600Y106100D02*
D03*
X131000D02*
D03*
X127800Y98800D02*
D03*
X127700Y102500D02*
D03*
X127600Y106100D02*
D03*
X124000D02*
D03*
Y102500D02*
D03*
X124100Y98800D02*
D03*
X125800Y122500D02*
D03*
X144700Y121100D02*
D03*
X145500Y86500D02*
D03*
X120400Y121600D02*
D03*
X134500Y110000D02*
D03*
X131000D02*
D03*
X127500D02*
D03*
X124000D02*
D03*
X114344Y153504D02*
D03*
X116312Y149568D02*
D03*
X114344Y145632D02*
D03*
X116312Y141696D02*
D03*
X114344Y137760D02*
D03*
X116312Y133824D02*
D03*
X114344Y129888D02*
D03*
X110408Y153504D02*
D03*
X112376Y149568D02*
D03*
X110408Y137760D02*
D03*
X112376Y133824D02*
D03*
X110408Y129888D02*
D03*
X112376Y125952D02*
D03*
X110408Y122016D02*
D03*
X112376Y118080D02*
D03*
X110408Y114144D02*
D03*
X112376Y110208D02*
D03*
X106472Y153504D02*
D03*
X108440Y149568D02*
D03*
X106472Y137760D02*
D03*
X108440Y133824D02*
D03*
X106472Y129888D02*
D03*
X108440Y125952D02*
D03*
X106472Y122016D02*
D03*
X108440Y118080D02*
D03*
X106472Y114144D02*
D03*
Y98400D02*
D03*
X108440Y94464D02*
D03*
X106472Y90528D02*
D03*
X108440Y86592D02*
D03*
X106472Y82656D02*
D03*
X102536Y153504D02*
D03*
X104504Y149568D02*
D03*
X102536Y137760D02*
D03*
X104504Y133824D02*
D03*
X102536Y129888D02*
D03*
X104504Y125952D02*
D03*
Y118080D02*
D03*
Y110208D02*
D03*
X102536Y98400D02*
D03*
X104504Y94464D02*
D03*
X102536Y90528D02*
D03*
X104504Y86592D02*
D03*
X102536Y82656D02*
D03*
X98600Y153504D02*
D03*
X100568Y149568D02*
D03*
X98600Y145632D02*
D03*
X100568Y141696D02*
D03*
X98600Y137760D02*
D03*
X100568Y133824D02*
D03*
X98600Y129888D02*
D03*
Y98400D02*
D03*
X100568Y94464D02*
D03*
X98600Y90528D02*
D03*
X100568Y86592D02*
D03*
X98600Y82656D02*
D03*
X94664Y153504D02*
D03*
X96632Y149568D02*
D03*
X94664Y145632D02*
D03*
X96632Y141696D02*
D03*
X94664Y137760D02*
D03*
X96632Y133824D02*
D03*
X94664Y129888D02*
D03*
Y98400D02*
D03*
X96632Y94464D02*
D03*
X94664Y90528D02*
D03*
X96632Y86592D02*
D03*
X94664Y82656D02*
D03*
X90728Y153504D02*
D03*
X92696Y149568D02*
D03*
X90728Y145632D02*
D03*
X92696Y141696D02*
D03*
Y133824D02*
D03*
X90728Y129888D02*
D03*
Y98400D02*
D03*
X92696Y94464D02*
D03*
X90728Y90528D02*
D03*
X92696Y86592D02*
D03*
X90728Y82656D02*
D03*
X88760Y141696D02*
D03*
X86792Y129888D02*
D03*
Y98400D02*
D03*
X88760Y94464D02*
D03*
X82856Y145632D02*
D03*
X84824Y141696D02*
D03*
X82856Y129888D02*
D03*
Y106272D02*
D03*
Y98400D02*
D03*
X84824Y94464D02*
D03*
X82856Y90528D02*
D03*
X80888Y141696D02*
D03*
Y133824D02*
D03*
Y102336D02*
D03*
Y94464D02*
D03*
X205627Y112857D02*
D03*
X148200Y108300D02*
D03*
X145900Y93351D02*
D03*
X85720Y101098D02*
D03*
X89657Y101100D02*
D03*
X142387Y129042D02*
D03*
X135100Y117786D02*
D03*
X142200Y115800D02*
D03*
X132500Y91000D02*
D03*
X111900Y94900D02*
D03*
X105405Y101098D02*
D03*
X109343Y101200D02*
D03*
X112100Y107500D02*
D03*
X85327Y107600D02*
D03*
X84400Y104300D02*
D03*
X101469Y101098D02*
D03*
X89657Y107500D02*
D03*
X97531Y101098D02*
D03*
X105405Y107500D02*
D03*
X101469D02*
D03*
X93594Y101098D02*
D03*
X97531Y107500D02*
D03*
X93594D02*
D03*
M02*
