M48
;Layer_Color=9474304
;FILE_FORMAT=2:4
INCH,TZ
;TYPE=PLATED
T1F00S00C0.0098
T2F00S00C0.0098
T3F00S00C0.0300
%
T01
X9073Y8266
X9466
X9860
X10254
X10647
X10844Y8659
X10450
X10057
X9663
X9270
X9466Y9053
X9860
X10254
X10647
X10844Y9446
X10450
X10057
X9663
X9270
X8876
X8482
X8089
X8286Y9840
X8679
X9073
X9466
X9860
X10254
X10647
X10450Y11021
X10647Y11414
X11041
X11238Y11808
X10844
X10450
X10647Y12202
X11041
X11238Y12595
X10844
X10450
X10647Y12989
X11041
X11434
X11631Y13382
X11238
X10844
X10450
X10057
X9663
X9270
X8876
X8482
X8089
X8286Y13776
X8679
X9073
X9466
X9860
X10254
X10647
X11041
X11434
X11238Y14170
X10844
X10450
X10057
X9663
X9270
X8876
X8482
X8089
X8286Y14563
X9073
X9466
X9860
X10254
X10647
X11041
X11434
X11631Y14957
X11238
X10844
X10450
X10057
X9663
X9270
X9466Y15350
X9860
X10254
X10647
X11041
X11434
X11631Y14170
X10254Y12989
X9860
X9466
X9073
X8679
X8286
Y10627
X8089Y10234
X8286Y9053
X9073
X11238Y11021
X9073Y15350
T02
X8572Y10110
X8966Y10110
X9359Y10110
X9753
X10147
X10541
X10934Y10120
X11190Y9490
X11210Y10750
X10541
X10147
X9753
X9359
X8966
X8533Y10760
X8440Y10430
X12400Y10610
X12760
X13100
X13110Y10260
X13460
Y10610
X13450Y11000
X13100
X12750
X12400
Y10250
X12770
X12780Y9880
X13110
X13460Y9870
X13250Y9100
X13325Y8610
X14550Y8650
X14590Y9335
X15290Y9980
X14820Y10830
X14220Y11580
X14470Y12110
X14239Y12904
X13510Y11779
X12580Y12250
X12040Y12160
X12410Y9880
X16030Y9020
X17740Y8780
X20550Y8313
X21210Y9360
X20563Y11286
X18980Y11941
X15890Y11960
T03
X8661Y8661
Y14961
X22835
Y8465
M30
