G04*
G04 #@! TF.GenerationSoftware,Altium Limited,Altium Designer,23.5.1 (21)*
G04*
G04 Layer_Color=32896*
%FSLAX25Y25*%
%MOIN*%
G70*
G04*
G04 #@! TF.SameCoordinates,F3818A2F-99DD-4422-A772-264FF04CB145*
G04*
G04*
G04 #@! TF.FilePolarity,Positive*
G04*
G01*
G75*
%ADD54C,0.01000*%
%ADD55C,0.00600*%
%ADD67C,0.00598*%
D54*
X135697Y140736D02*
G03*
X215197Y140736I39750J116343D01*
G01*
X139141Y113155D02*
G03*
X152611Y113603I7056J-9419D01*
G01*
X196231Y112786D02*
G03*
X209700Y113234I7056J-9419D01*
G01*
X197286Y104367D02*
Y123867D01*
X208786D01*
Y104367D02*
Y123867D01*
X140197Y104736D02*
Y124236D01*
X151697D01*
Y104736D02*
Y124236D01*
X125697Y130736D02*
X135697Y140736D01*
X125697Y126107D02*
Y130736D01*
X225697Y126107D02*
Y130236D01*
X215197Y140736D02*
X225697Y130236D01*
X125197Y90236D02*
Y94236D01*
Y90236D02*
X135197Y80236D01*
X215697D01*
X225697Y90236D01*
Y94366D01*
D55*
X114837Y93354D02*
X115437Y92754D01*
X110835Y93354D02*
X114837D01*
X110236Y92754D02*
X110835Y93354D01*
X110236Y82793D02*
X110835Y82193D01*
X114837D01*
X115437Y82793D01*
D67*
X110236D02*
Y85793D01*
Y89754D02*
Y92754D01*
X115437Y89754D02*
Y92754D01*
Y82793D02*
Y85793D01*
M02*
